<svg xmlns="http://www.w3.org/2000/svg" viewBox="0 0 116.77 139.34"><defs><style>.cls-1{fill:#c70063;}.cls-1,.cls-2{opacity:0.3;}.cls-2{fill:#49a4c4;}.cls-3{fill:#298fce;}.cls-4{fill:#4b9fdd;}.cls-5{fill:#ffc5b3;}.cls-6{fill:#fff;}.cls-7{fill:#caefff;}.cls-8{fill:#0f7fb7;}.cls-9{fill:#ffad97;}.cls-10{fill:#501d33;}.cls-11{fill:#dddcd7;}.cls-12{fill:#542d40;}.cls-13{fill:#84ceef;}.cls-14{fill:#def5ff;}.cls-15{fill:#c1c1c1;}.cls-16{fill:#e8ba87;}.cls-17{fill:#fbd3a3;}</style></defs><g id="Layer_2" data-name="Layer 2"><g id="Layer_1-2" data-name="Layer 1"><circle class="cls-1" cx="60.85" cy="40.42" r="40.42"/><path class="cls-2" d="M94.91,95.55c5.2-1.4,8.77-4.25,8.77-7.56,0-4.69-7.14-8.48-15.94-8.48-6.06,0-11.33,1.8-14,4.44l-3.42-1.86L3.06,120.42l34,18.92,67.42-38.57Z"/><path class="cls-3" d="M26.55,58.71s2,8.53,2.76,13.44,3.33,7.59,4.83,9.57,7.09,9.14,7.09,9.14,4.1.18,5-.64a8,8,0,0,0,1.5-2.41L37.26,75.59,36.38,63s5.19,3.22,8.94,5.16,7.89,7.29,9.34,8.93,3.41,4.2,3.41,4.2,4.6-.56,5.43-1.49S63,74.17,63,74.17s-12-10-15.32-12.7-8.45-7.37-8.45-7.37Z"/><path class="cls-3" d="M27.69,34s3.65-2.22,6.86,0A35.6,35.6,0,0,1,39,37.45s.21,1.24-1.28,2.86a7.68,7.68,0,0,1-2.43,2L31,39.65Z"/><path class="cls-4" d="M22.54,35.36s-1.65,1.61-3.3,3.37a9.47,9.47,0,0,0-1.93,2.91c-.53,2.07,3.34,6.3,4.93,9.76S25.9,63,25.9,63s7.23,2.33,10.68-1.17a23.79,23.79,0,0,0,4.65-6.2s-4.52-8-5.65-10.37-2.59-8-3.39-9.31c-.45-.76-1.53-2.64-3.57-2.11C26.14,34.48,24.89,34,22.54,35.36Z"/><path class="cls-5" d="M86.86,85.77A4.37,4.37,0,0,0,88,83.36a7.25,7.25,0,0,0,0-2l3.87-.74a21.13,21.13,0,0,0,.45,3.24c.3,1-.73,3.35-2,3.34A9,9,0,0,1,86.86,85.77Z"/><path class="cls-6" d="M87.48,84.85s-1.37,2-2.51,3.23c-1.35,1.52-1.92,1.87-2.24,2.7s1.2,2.82,3.82,1.3a17.37,17.37,0,0,0,4-2.76c1.16-1.06,2.35-1.77,2.54-3.3a2.58,2.58,0,0,0-.86-2.14s-.24.91-1.82,1.8C89.21,86.35,87.48,84.85,87.48,84.85Z"/><path class="cls-7" d="M82.73,90.78s1.74,1.07,2,1.17c1.52.68,3-.91,4.41-1.89A8.63,8.63,0,0,0,92,87a6.76,6.76,0,0,1,1.08-1.54s.87,2-.36,2.78c-1.48.9-3.89,2.66-4.58,3.07s-3.51,2.55-5.17.9A1.25,1.25,0,0,1,82.73,90.78Z"/><path class="cls-7" d="M86.48,86.21a3.67,3.67,0,0,1,1.33,1,11.73,11.73,0,0,1,.85,1.06l-.54.39s-.9-.89-1.32-1.36a5.23,5.23,0,0,0-.76-.5Z"/><path class="cls-7" d="M85.52,87.43a4,4,0,0,1,1.36,1,4.91,4.91,0,0,1,.66.87l-.47.52-1.2-1.29a6.74,6.74,0,0,0-.82-.56Z"/><path class="cls-5" d="M79.91,31s.63-1.93,1.57-4.72c.85-2.48,2.68-6.35,2.47-5.89-.11.23,4.27,3.87,4.3,3.54s-2.94,6.45-4.17,8.82C82.64,35.51,79.91,31,79.91,31Z"/><path class="cls-5" d="M110.55,62.92a4.43,4.43,0,0,0-.67-2.57,7.12,7.12,0,0,0-1.28-1.57l2.53-3a21.13,21.13,0,0,0,2.4,2.23c.87.59,1.54,3,.54,3.86A8.87,8.87,0,0,1,110.55,62.92Z"/><path class="cls-6" d="M110.48,61.94a37.3,37.3,0,0,1,.09,3.88c-.08,2-.3,2.66,0,3.5s2.71,1.43,3.79-1.4a17.61,17.61,0,0,0,1.34-4.66c.22-1.55.7-2.85-.12-4.15a2.56,2.56,0,0,0-2-1.12,3.57,3.57,0,0,1-.27,2.54C112.76,61.79,110.48,61.94,110.48,61.94Z"/><path class="cls-7" d="M110.54,69.32s2-.27,2.26-.33c1.61-.43,1.73-2.58,2.23-4.26a8.63,8.63,0,0,0,.32-4.17,6.75,6.75,0,0,1-.13-1.89s2,1,1.47,2.38c-.58,1.64-1.33,4.53-1.61,5.28s-1.11,4.2-3.44,4C111.11,70.24,110.82,70,110.54,69.32Z"/><path class="cls-7" d="M110.57,63.41a3.52,3.52,0,0,1,1.65-.07,11.65,11.65,0,0,1,1.32.28l-.16.65s-1.27-.13-1.89-.22a5,5,0,0,0-.9.1Z"/><path class="cls-7" d="M110.59,65a4,4,0,0,1,1.7-.07,4.73,4.73,0,0,1,1.06.25l0,.71-1.74-.24a5.78,5.78,0,0,0-1,.07Z"/><path class="cls-3" d="M87.44,25.27c3.14-3.19,4.88-9.23,2.42-10.6,0,0-1.56-1.38-3.71,1.43-1,1.3-2.78,3.6-3.82,5.22C83.66,23.9,85.63,24.61,87.44,25.27Z"/><path class="cls-8" d="M99.19,51l.87-12.82s-9.35,1.4-11.29,3.08c0,0,.75,9,2.47,13.07A71,71,0,0,0,99.19,51Z"/><path class="cls-8" d="M113,55.78s-5.32-2.44-7.81-3.34c-3.37-1.21-5.44-2.12-5.87-2.32a72.75,72.75,0,0,1-6.5,5.12c2.47,2.64,5.56,3.2,8.5,4.19A73.3,73.3,0,0,1,109.58,63s2.71-1.19,3.27-2.9C113.79,57.28,113,55.78,113,55.78Z"/><path class="cls-3" d="M94.22,42.43c.55-1.51-5.29,16.54-5.73,18.77s-.15,6.84-.63,10.55-2,11-2,11,2,1.9,4,1.94a8.68,8.68,0,0,0,4.39-1S96,70.73,96.07,68.82s.49-5.76.49-5.76,4.68-8,6.5-13.23a20,20,0,0,0,.81-7.46Z"/><path class="cls-4" d="M88.39,17s-3,1.22-3.41,7.29a126.37,126.37,0,0,0,1.06,13c1,7.64.82,10,.82,10s5,3.24,10.45,2.8c3.22-.25,7.73-6.92,7.73-6.92-2.51-5.45-3.76-5.77-4.63-10.28-1.15-6,.06-10.07-.06-11C100.09,20,96.5,17.83,95,17,91.37,15,91.65,15.74,88.39,17Z"/><path class="cls-9" d="M88.83,18l-.68,3.77s-.7,3.09,0,4c2.24-1.25,6.12-7.28,5.77-7.58l-1.14-4.41Z"/><path class="cls-3" d="M87.87,18.86a38,38,0,0,0-.82,4.78,27.86,27.86,0,0,0,.35,5.07,55.89,55.89,0,0,1,4.25-5.43,13.77,13.77,0,0,0,4.15-5.82L93.61,16l-.16.42a2.56,2.56,0,0,1,0,1.93c-.34.85-.44,1.55-2.77,3.78-.62.59-2.46,2.71-2.46,2.71s.15-1.44.37-3.13c.19-1.47.75-3.68.75-3.68Z"/><path class="cls-5" d="M91.35,8.5a4.23,4.23,0,0,0-6.6,2.25c-1.42,4,2.21,9,4.14,8.15a8.15,8.15,0,0,0,4-4.27C93.6,12.25,92.56,9.42,91.35,8.5Z"/><path class="cls-10" d="M84.36,12.36c1.06.21,4.1.4,5.81-.57A2.47,2.47,0,0,0,90.46,14s.44-1,1.34-.85c.59.12.55,1,.55,1a5.39,5.39,0,0,0,1.1,2.19c.4-.6.86-4.48.84-5.57,0-1.53-.29-3.78-3.1-4.08-1.38-1.9-3.24-.94-4.42-.32a10.77,10.77,0,0,0-3.51,2.95A10.08,10.08,0,0,0,84.36,12.36Z"/><polygon class="cls-6" points="94.34 27.48 90.86 25.94 91.25 25.08 94.73 26.62 94.34 27.48"/><path class="cls-5" d="M97,25.75s-.14,1.36-.29,2.69c-.26,2.21-.5,6.5-.5,6.5L91,41.8l2.46,2.43a32.25,32.25,0,0,0,5-4.92c1.6-2,1.78-2.51,2-4,.43-2.27,1-8.8.67-8.81S97,25.75,97,25.75Z"/><path class="cls-3" d="M95.48,30c2.24,1.47,4.16,1.17,6.55.26.69-5-1.27-9.11-3.39-10.76-1.17-.91-2.84.88-2.84,4.18C95.8,25.11,95.59,28.25,95.48,30Z"/><path class="cls-11" d="M93.79,57.41c0-4-2.54-8.92-5.55-10.65l-8.12-4.69a4.06,4.06,0,0,0-2-.61,2.37,2.37,0,0,0-1.21.31c-1.1.63-1.73,2.16-1.73,4.2v5.68c-.4-.25-.8-.5-1.2-.77V46c0-2.48.85-4.39,2.33-5.24a4.31,4.31,0,0,1,4.42.3l8.12,4.69c3.39,2,6.15,7.2,6.15,11.69v5.14l-1.2-.84Z"/><path class="cls-10" d="M66.11,83.41a4.64,4.64,0,0,1-1.94,3.7c-1.07.62-1.93,0-1.93-1.46A4.63,4.63,0,0,1,64.17,82C65.24,81.33,66.11,82,66.11,83.41Z"/><polygon class="cls-10" points="66.84 82.68 65.34 81.8 62.91 87.21 64.47 88.11 66.84 82.68"/><path class="cls-12" d="M67.67,84.32A4.62,4.62,0,0,1,65.73,88c-1.06.62-1.93,0-1.93-1.46a4.67,4.67,0,0,1,1.93-3.7C66.8,82.24,67.67,82.89,67.67,84.32Z"/><path class="cls-6" d="M66.84,84.87a2.33,2.33,0,0,1-1,1.86c-.53.31-1,0-1-.73a2.36,2.36,0,0,1,1-1.87C66.4,83.82,66.84,84.15,66.84,84.87Z"/><path class="cls-13" d="M63.61,82.09v3.19a11.8,11.8,0,0,0,1.62.67c.88.29,1.23-.51,1-1.58-.36-1.37-1.07-3.16-1.07-3.16Z"/><polygon class="cls-6" points="63.61 82.09 62.03 81.38 62.03 84.38 63.61 85.28 63.61 82.09"/><path class="cls-14" d="M62,81.33c0,.46.7.83,1.56.83s1.55-.37,1.55-.83-.69-.83-1.55-.83S62,80.87,62,81.33Z"/><rect class="cls-6" x="63.02" y="56.02" width="1.16" height="25.2" transform="translate(127.19 137.23) rotate(180)"/><path class="cls-6" d="M63,81.21c0,.17.26.31.58.31s.58-.14.58-.31-.26-.31-.58-.31S63,81,63,81.21Z"/><path class="cls-11" d="M7.18,81.68c0-4.73,2.9-10.26,6.47-12.32L57.29,44.17a4.5,4.5,0,0,1,4.61-.32c1.55.89,2.44,2.89,2.44,5.49v7.88l-56,32.34h0l-1.14.66ZM43.87,53.23,31.46,60.4V74.88l12.41-7.16ZM45,67.06l11.14-6.43V46.15L45,52.58Zm-14.69-6L17.91,68.22V82.71l12.41-7.17Zm31-16.22a3.42,3.42,0,0,0-3.47.32l-.58.33V60l5.92-3.42V49.34C63.2,47.16,62.52,45.52,61.33,44.84ZM16.78,83.36V68.88l-2.56,1.47c-3.2,1.85-5.9,7-5.9,11.33v6.57Z"/><rect class="cls-15" x="22.17" y="81.77" width="1.27" height="32.53" transform="translate(-73.69 69.4) rotate(-60.38)"/><polygon class="cls-15" points="36.63 112.99 37.26 111.89 7.82 95.16 7.81 96.61 36.63 112.99"/><polygon class="cls-15" points="93.02 81.09 93.64 79.99 64.21 63.25 64.2 64.71 93.02 81.09"/><rect class="cls-15" x="78.67" y="49.49" width="1.27" height="32.53" transform="translate(-17.05 102.21) rotate(-60.39)"/><path class="cls-10" d="M10.32,115.64a4.63,4.63,0,0,1-1.93,3.7c-1.07.62-1.94,0-1.94-1.46a4.64,4.64,0,0,1,1.94-3.7C9.46,113.56,10.32,114.22,10.32,115.64Z"/><polygon class="cls-10" points="11.05 114.91 9.56 114.03 7.13 119.44 8.68 120.34 11.05 114.91"/><path class="cls-12" d="M11.89,116.55A4.62,4.62,0,0,1,10,120.24c-1.07.62-1.93,0-1.93-1.46a4.64,4.64,0,0,1,1.93-3.7C11,114.47,11.89,115.12,11.89,116.55Z"/><path class="cls-6" d="M11.05,117.1a2.32,2.32,0,0,1-1,1.86c-.54.31-1,0-1-.73a2.35,2.35,0,0,1,1-1.87C10.62,116.05,11.05,116.38,11.05,117.1Z"/><path class="cls-13" d="M7.82,114.32v3.19a12.27,12.27,0,0,0,1.63.67c.88.29,1.23-.51,1-1.58a32.09,32.09,0,0,0-1.06-3.16Z"/><polygon class="cls-7" points="7.82 114.32 6.25 113.61 6.25 116.61 7.82 117.51 7.82 114.32"/><path class="cls-14" d="M6.25,113.56c0,.46.69.83,1.55.83s1.56-.37,1.56-.83-.7-.83-1.56-.83S6.25,113.1,6.25,113.56Z"/><rect class="cls-11" x="7.23" y="88.25" width="1.16" height="25.2" transform="translate(15.63 201.69) rotate(180)"/><path class="cls-6" d="M7.23,113.44c0,.17.26.31.58.31s.58-.14.58-.31-.26-.31-.58-.31S7.23,113.27,7.23,113.44Z"/><polygon class="cls-4" points="26.55 103.12 97.96 61.85 71.41 46.52 0 87.79 26.55 103.12"/><polygon class="cls-3" points="0 87.79 26.55 103.12 26.55 109.08 0 93.75 0 87.79"/><polygon class="cls-8" points="97.96 61.85 97.96 67.79 26.55 109.06 26.55 103.12 97.96 61.85"/><path class="cls-12" d="M79.91,55.81S78.44,58,78.65,59c.65,3.17-1,3.51-1,3.51s.42-1.89,0-2.55a3.86,3.86,0,0,1-1.82,3.06c-.92.75-2.67,2-2.67,2l-3.5-6L66.49,56s1.92-2.33,4-1.85a10.92,10.92,0,0,0,4.19,0Z"/><path class="cls-5" d="M59.79,57.52S57.55,58.74,56,59.66a36.53,36.53,0,0,1-6.28,2.62c-1.89.61-3.86,2-6,2.74a6.9,6.9,0,0,0-4.35,3.49c-.63,1.14.84,2,3.51.88,1.32-.55,1.58-1.84,3-2.53.57-.27,3.26-.25,6.2-1.73,1.64-.83,8.22-3.82,9.16-4.67S59.79,57.52,59.79,57.52Z"/><path class="cls-16" d="M59.74,60,68,55.27a8.7,8.7,0,0,0-5.91-.41,21,21,0,0,0-4,1.88A8,8,0,0,1,59.74,60Z"/><path class="cls-10" d="M15.78,90.86s-1.12,1.6-3.24-.89-2.72-3.89-1.7-4.67C12.24,84.24,16.09,87.58,15.78,90.86Z"/><path class="cls-5" d="M37.74,89.8a87.19,87.19,0,0,0-9.27,5,8.71,8.71,0,0,0-2.66,2.94,3.85,3.85,0,0,1-2.28,1.35,6.12,6.12,0,0,1-2.41-1.23,13.17,13.17,0,0,1-3.84-3.47c-1.2-1.46-2.19-2.69-.8-2.92,1.61-.27,3,.87,4.58,1.54,1.78.75,3.2-.34,4-1C27.32,90.32,34,85,34,85Z"/><path class="cls-5" d="M15.8,88.31a26.64,26.64,0,0,0-2,2.31A3.84,3.84,0,0,1,11.56,92a6,6,0,0,1-2.41-1.24,13.14,13.14,0,0,1-3.84-3.46c-1.2-1.46-2.19-2.7-.8-2.93,1.61-.26,3,.88,4.58,1.55,1.78.75,4-1,4-1Z"/><path class="cls-12" d="M50.89,65.07c-1.16-.7-15.61,6.67-21.83,9.91C23.7,77.76,10.84,85.3,10.84,85.3a4.64,4.64,0,0,1,3.57,2.46,17.07,17.07,0,0,1,1.37,3.1s9.59-4.63,12.31-6.09c1.41-.76,9.35-5.39,10.54-6,3.06-1.5,6.09-2.63,6.09-2.63s-5.89,4.15-10.09,6.72A55.27,55.27,0,0,0,30,86.38,6.4,6.4,0,0,0,32.67,86C32,87.79,30.42,90.53,30,91.58c1.49-.22,3.32-1,4.53-1.13,4-3.25,7.65-4.62,13.17-7.59,3.54-1.9,9.17-6.13,12.62-8.72Z"/><path class="cls-10" d="M59,73.82a80.42,80.42,0,0,1-13.13,8.8,56.26,56.26,0,0,0-11.3,7.83c-.28,1.07-.57,2.13-.86,3.2,1.65-1.18,3.38-2.48,4.94-3.8,4.7-4,9.19-5.79,12.2-7.23a42.09,42.09,0,0,0,8.59-5.55C59.33,76.5,58.94,74.39,59,73.82Z"/><path class="cls-17" d="M69,55.62a16.29,16.29,0,0,0-2.25-.8c-2,.4-4,.24-5.31.91a4.71,4.71,0,0,0-2.13,2,11.31,11.31,0,0,1-4.18,4.3,52.72,52.72,0,0,1-6.4,3.49,34.7,34.7,0,0,1,6.45,5.66,11,11,0,0,1,2.26,7.91,10.74,10.74,0,0,0,3.88-2.67c1.37-1.35,3-3.89,4.35-5.24a19.44,19.44,0,0,1,5.25-3.27c4.81-1.58,4.69-6.69,4.69-6.69l-1.66-2.4L67.15,59Z"/><path class="cls-9" d="M73.37,53.67a11.5,11.5,0,0,1-4.53,2.84l-.28.05c-.26.38-1.72,1.62-1.09,2.19,1,.84,4.43.6,5.56.63a8.14,8.14,0,0,1,2.41-2.22C76.47,56.72,73.37,53.67,73.37,53.67Z"/><path class="cls-5" d="M70.44,65.54s-3.3,3.49-5.26,5.13c-.79.93-3,1.83-.57,3.68a2.36,2.36,0,0,0,2.78,0c.4-.37,2.94-2.23,3.35-2.57,1.44-1.14,3.9-2.56,5.1-5.71C75.92,65.87,70.44,65.54,70.44,65.54Z"/><path class="cls-16" d="M75.58,61.25c-4.36.9-5.83,4-7.58,6.31,2.51.8,3.2,2.21,4,4.59,1.44-1.29,3-2.42,4-4.08C77.33,65.55,76.8,62,75.58,61.25Z"/><path class="cls-16" d="M73.71,58.57l.53.73s-2.58.43-4.3.52-4.7-.61-2.88-3A4.49,4.49,0,0,1,69,55.62l1,.51a4.72,4.72,0,0,0-2,1.68c-.52,1.11,1,1.11,2.63,1.1A18.88,18.88,0,0,0,73.71,58.57Z"/><path class="cls-10" d="M45.18,75.92a8.75,8.75,0,0,0,1.91-2.79c.66-1.63.95-3,0-3.14s-1.06.94-1.41,1.63-5.21,4.33-7.84,5.3-8.31,4.69-13.29,6.94c-4.13,1.85-9.6,4.81-9.6,4.81l.83,2.19s8.86-4.48,12.31-6.09S45.18,75.92,45.18,75.92Z"/><path class="cls-5" d="M78.72,56.18c-2.09,1.75-4.89,1.87-6.24.25s-.74-4.34,1.35-6.09,4.89-1.87,6.24-.26S80.82,54.42,78.72,56.18Z"/><path class="cls-12" d="M7.87,85.31A6.19,6.19,0,0,0,9.5,87.74a18.94,18.94,0,0,0,4.34,2.88c-.73,1.13-1.53,2.59-3,1.57a51.88,51.88,0,0,1-4.68-3.58c-2-1.77-3.18-2.52-2.77-4.29S7.87,85.31,7.87,85.31Z"/><path class="cls-12" d="M19.93,92.45a6.19,6.19,0,0,0,1.63,2.43,19,19,0,0,0,4.34,2.89c-.73,1.12-1.53,2.58-3,1.57a52.1,52.1,0,0,1-4.68-3.59c-2-1.77-3.18-2.51-2.77-4.29S19.93,92.45,19.93,92.45Z"/><path class="cls-5" d="M66.49,70.48a47.46,47.46,0,0,0-5-5.78c-2-1.73-3.67-3.71-5.17-2.84-1.81,1-.48,2.29.32,3.16s2.86,1.6,3.39,2.67,3.74,6.83,5,7.13S66.49,70.48,66.49,70.48Z"/><path class="cls-6" d="M74.05,59s-10.76,2-13.1,2.6a13,13,0,0,0-5,2.6c-.7.66.49,1.44,1.16,1.91a9.77,9.77,0,0,1,2.72,2.73c.6,1.13,2.49,3.36,3,4.25a2.13,2.13,0,0,0,1.35,1s2.33-3.57,2.11-4.26a13.83,13.83,0,0,0-2.78-3.32c-1-1-3.12-2.88-3.12-2.88a65,65,0,0,1,6.46-1.85C69.67,61.37,75,60.4,75,60.4Z"/><path class="cls-12" d="M77.68,50.15a17.79,17.79,0,0,1,0,4.15,20.87,20.87,0,0,0-.39,2.77s3.56-.81,4.09-3.6a4.23,4.23,0,0,0-1.69-4.25,4.71,4.71,0,0,0-3.27-1.06l-3.4.18a1.15,1.15,0,0,0,.66.7,3.58,3.58,0,0,0,1.88.26,17.57,17.57,0,0,0-3.56.9,4.35,4.35,0,0,0,3.07,0A4,4,0,0,1,77.68,50.15Z"/><path class="cls-5" d="M77.47,54.54s1.15-.11,1.18.73-2,1-2,1Z"/><path class="cls-6" d="M72.82,51.4a7,7,0,0,1,3.86.8,22.73,22.73,0,0,1,4,2.88s.38.21.84-.83a1.64,1.64,0,0,0,0-1.64A5.42,5.42,0,0,0,78.65,50c-2.16-.93-3.07-.72-3.07-.72A2.72,2.72,0,0,0,72.82,51.4Z"/><path class="cls-15" d="M36.6,98.51c0-4.73,2.9-10.26,6.48-12.32L86.71,61a4.5,4.5,0,0,1,4.62-.32c1.54.89,2.43,2.89,2.43,5.49v7.88l-56,32.34h0l-1.14.66ZM73.29,70.06,60.88,77.22V91.71l12.41-7.16Zm1.14,13.83,11.14-6.43V63L74.43,69.4Zm-14.69-6-12.4,7.17V99.53l12.4-7.16Zm31-16.21a3.43,3.43,0,0,0-3.48.31l-.57.34V76.8l5.91-3.41V66.17C92.62,64,91.94,62.35,90.76,61.67ZM46.2,100.19V85.7l-2.55,1.48c-3.21,1.84-5.91,7-5.91,11.33v6.56Z"/><path class="cls-10" d="M39.67,132.47a4.64,4.64,0,0,1-1.94,3.7c-1.07.61-1.93,0-1.93-1.47A4.61,4.61,0,0,1,37.73,131C38.8,130.39,39.67,131.05,39.67,132.47Z"/><polygon class="cls-10" points="40.4 131.74 38.91 130.86 36.47 136.27 38.03 137.17 40.4 131.74"/><path class="cls-12" d="M41.23,133.37a4.63,4.63,0,0,1-1.93,3.7c-1.07.62-1.94,0-1.94-1.46a4.64,4.64,0,0,1,1.94-3.7C40.37,131.29,41.23,132,41.23,133.37Z"/><path class="cls-6" d="M40.4,133.93a2.34,2.34,0,0,1-1,1.86c-.54.31-1,0-1-.74a2.34,2.34,0,0,1,1-1.86C40,132.88,40.4,133.21,40.4,133.93Z"/><path class="cls-13" d="M37.17,131.15v3.19a13.21,13.21,0,0,0,1.63.67c.87.29,1.23-.51,1-1.58-.36-1.37-1.07-3.16-1.07-3.16Z"/><polygon class="cls-7" points="37.17 131.15 35.59 130.43 35.59 133.44 37.17 134.34 37.17 131.15"/><path class="cls-14" d="M35.59,130.39c0,.46.7.83,1.56.83s1.56-.37,1.56-.83-.7-.83-1.56-.83S35.59,129.93,35.59,130.39Z"/><rect class="cls-15" x="36.58" y="105.07" width="1.16" height="25.2" transform="translate(74.32 235.34) rotate(180)"/><path class="cls-6" d="M36.58,130.27c0,.17.26.31.58.31s.58-.14.58-.31-.26-.31-.58-.31S36.58,130.1,36.58,130.27Z"/><path class="cls-10" d="M95.58,100.24a4.64,4.64,0,0,1-1.94,3.7c-1.06.61-1.93,0-1.93-1.47a4.64,4.64,0,0,1,1.93-3.69C94.71,98.16,95.58,98.82,95.58,100.24Z"/><polygon class="cls-10" points="96.31 99.51 94.82 98.63 92.38 104.04 93.94 104.94 96.31 99.51"/><path class="cls-12" d="M97.14,101.14a4.63,4.63,0,0,1-1.93,3.7c-1.07.62-1.94,0-1.94-1.46a4.64,4.64,0,0,1,1.94-3.7C96.28,99.06,97.14,99.72,97.14,101.14Z"/><path class="cls-6" d="M96.31,101.7a2.32,2.32,0,0,1-1,1.86c-.54.31-1,0-1-.74a2.34,2.34,0,0,1,1-1.86C95.88,100.65,96.31,101,96.31,101.7Z"/><path class="cls-13" d="M93.08,98.92v3.19a13.21,13.21,0,0,0,1.63.67c.87.29,1.23-.51,1-1.58A31,31,0,0,0,94.59,98Z"/><polygon class="cls-7" points="93.08 98.92 91.5 98.2 91.5 101.21 93.08 102.11 93.08 98.92"/><path class="cls-14" d="M91.5,98.16c0,.46.7.83,1.56.83s1.56-.37,1.56-.83-.7-.83-1.56-.83S91.5,97.7,91.5,98.16Z"/><rect class="cls-15" x="92.49" y="72.84" width="1.16" height="25.2" transform="translate(186.14 170.88) rotate(180)"/><path class="cls-6" d="M92.49,98c0,.17.26.31.58.31s.58-.14.58-.31-.26-.31-.58-.31S92.49,97.87,92.49,98Z"/><path class="cls-5" d="M84.48,32S83,35.78,81.82,39.32c-.37,1.14.38,2.2.27,2.5-.74.14-.76.79-.2,1.27-.3.63-.88,1.13-1.6.81-1-.44-2.39-.93-2.56-1.51-.28-1,.6-1.83,1.1-4.06.38-1.67.47-4.78.94-6.94C80.4,28.49,84.48,32,84.48,32Z"/><path class="cls-5" d="M93.65,44S92,46,91.5,46.4a7.42,7.42,0,0,1-2.21,1.42,2.26,2.26,0,0,1-1.73-.56c-.26-.21-.87-.32-1-.5s-.83-.72-.66-1.17a3.12,3.12,0,0,1,.59-1.18,6,6,0,0,1,1.61-1.1c.63-.36,2.06-1,3-1.61C91.85,41.2,93.65,44,93.65,44Z"/><path class="cls-9" d="M27,32.29,28.38,39s1.4,2.88.66,3.26-3.62-1.74-4.55-2.54c-1.84-1.57-2.1-2.3-2.1-2.3l.91-5Z"/><path class="cls-5" d="M27.81,26.9a4.27,4.27,0,0,0-7,.51c-2.39,3.54-.13,9.33,2,9a8.13,8.13,0,0,0,5-3.15C29.05,31.13,28.75,28.1,27.81,26.9Z"/><path class="cls-10" d="M19.78,28.61a4.38,4.38,0,0,0,3.55,1.89,7.75,7.75,0,0,0,2.9-.29L26,31.83a1.67,1.67,0,0,0,.59-.06c.25-.81,1-.73,1.21-.27a3.5,3.5,0,0,1,0,1.75,4.36,4.36,0,0,0,2-3.54c.06-1.54-1.16-4.92-4-5.37A5.45,5.45,0,0,0,20,26.76,2.25,2.25,0,0,0,19.78,28.61Z"/><path class="cls-5" d="M52,46.88a78.23,78.23,0,0,1-7.84-4.12c-1.29-.92-3.84-3.2-5.24-4.34-.34,1.38-1.54,2.3-2.79,3.36a31.58,31.58,0,0,0,5.42,3.52,53.79,53.79,0,0,0,7.17,2.85v1s.74-.42,1.11-.11-.11.71-.55,1.1a1.17,1.17,0,0,0,1.33.74c.95,0,1.3-.57,1.7-1.31S53.18,47.43,52,46.88Z"/><path class="cls-5" d="M15.89,46.85A60.66,60.66,0,0,1,15.65,53a15.1,15.1,0,0,0,.24,4.11c.19.94.62,1,1.37,1.43A33.63,33.63,0,0,0,24.84,61c.32.69.16,1.2.61,1.57.65-.38,1,.4.78.87a1.29,1.29,0,0,0,1.88.33,2.87,2.87,0,0,0,1.3-2.51c.08-.66-.67-.91-1.54-1.41a35.27,35.27,0,0,0-4.14-2.09,20.8,20.8,0,0,1-3.95-2.33s1.34-4.55.45-8.16C20,46.19,15.89,46.85,15.89,46.85Z"/><path class="cls-3" d="M18.14,40.25a6.29,6.29,0,0,0-2.83,4.06A32.24,32.24,0,0,0,15,50.94a17.59,17.59,0,0,0,6.9,0C21.88,48.15,21.09,41.58,18.14,40.25Z"/><path class="cls-3" d="M20.57,37.34c.37.31,1.19,1.38,3,2.91A38.57,38.57,0,0,0,30,43.89a17.92,17.92,0,0,0-.28-5.47c-.62-1.88-1.54-4.49-1.54-4.49l-.94.21a23.63,23.63,0,0,0,.67,3.51,13.09,13.09,0,0,1,.91,4.27c-1.53-.93-2.57-1.47-4.14-2.46a6.51,6.51,0,0,1-2.11-2s.12-.69.17-1.11a1.19,1.19,0,0,1-1-.27Z"/></g></g></svg>