<svg xmlns="http://www.w3.org/2000/svg" viewBox="0 0 236.1 388.14"><defs><style>.cls-1{fill:#49a4c4;}.cls-1,.cls-2{opacity:0.3;}.cls-2{fill:#c70063;}.cls-3{fill:#685a56;}.cls-4{fill:#ffac9d;}.cls-15,.cls-17,.cls-5{fill:#352c38;}.cls-5{opacity:0.15;}.cls-6{fill:#6d5a55;}.cls-7{fill:#cc8271;}.cls-8{fill:#ce795f;}.cls-9{fill:#303951;}.cls-10{fill:#e48282;opacity:0.56;}.cls-11,.cls-12{fill:#373c44;}.cls-12,.cls-13,.cls-15{opacity:0.2;}.cls-13{fill:#222528;}.cls-14{fill:#dddcd7;}.cls-16{fill:#dc5151;}.cls-18{fill:#fb897a;}.cls-19{fill:#e8e8e8;}.cls-20{fill:#c6c6c6;}.cls-21{fill:#fff;}</style></defs><g id="Layer_2" data-name="Layer 2"><g id="OBJECTS"><ellipse class="cls-1" cx="120.94" cy="377.68" rx="57.68" ry="10.46"/><circle class="cls-2" cx="118.05" cy="177.52" r="118.05"/><path class="cls-3" d="M150.52,76.83c-10.79,1.69-39.14-8.8-39.14-8.8L120,2.67s13.5,1.81,20.9,11.68c3,4-.13,14.34,9,23.32C162,49.5,157,75.82,150.52,76.83Z"/><path class="cls-3" d="M77.2,71.93c1.39,10.19,37.46-4.14,37.46-4.14L122,2.56S104.28-6.07,91.39,8.35c-3.6,4-14.93,20.43-8.41,33.42C92.07,59.91,76.46,66.43,77.2,71.93Z"/><path class="cls-4" d="M99.35,41l3.85,25.89L87.45,68.54s34.43,39.79,36,39.44c13.3-2.92,17.44-39.1,17.44-39.1l-20.34-2.06-4-23.17Z"/><path class="cls-5" d="M104.22,62.77l-1.69-.37L99.35,41l17.24,2.67,3.72,21.76C114.88,65.36,109.19,63.84,104.22,62.77Z"/><path class="cls-4" d="M93.12,25.48s3.13-14.92,21.94-17S138.74,22.15,138.67,35c0,7.09-1.85,14.06-5.93,19.08a20.38,20.38,0,0,1-14.58,7.4c-7.46.66-13.07-1.76-17.07-6.39C95.57,48.64,93.13,38,93.12,25.48Z"/><path class="cls-4" d="M94,29.09s-6.53-2.15-6.15,4.8c.63,11.12,8.5,8.26,8.5,8.26S93.54,38.1,94,29.09Z"/><path class="cls-3" d="M125.55,5.26s-1.1,12.62-8.71,17.89-17.28,5.51-17.28,5.51-1.75,9.83-3.21,7.48a72.27,72.27,0,0,1-5-9.46C89.77,22.57,93.5.62,108.21.35S125.55,5.26,125.55,5.26Z"/><path class="cls-6" d="M126.2,6.1c-.46-.08-.92-.13-1.38-.17-.68,3.84-1.13,15.63,17.19,21.19,0-.13,0-.25.05-.38C143.15,16.68,133,7.25,126.2,6.1Z"/><path class="cls-7" d="M124.25,29.3a49.41,49.41,0,0,1,1.32,6.42c.16,1.08.29,2.16.4,3.24s.19,2.17.28,3.25l0,.39-.24.23c-.67.61-1.35,1.22-2.06,1.78a19.13,19.13,0,0,1-2.27,1.58,18.42,18.42,0,0,1,1.5-2.32c.54-.74,1.12-1.44,1.71-2.12l-.22.61c-.11-1.08-.25-2.16-.33-3.25s-.17-2.16-.21-3.25A47.93,47.93,0,0,1,124.25,29.3Z"/><path class="cls-8" d="M89.73,34.88a6.41,6.41,0,0,1,.39-2.65,2.17,2.17,0,0,1,1-1.16,1.83,1.83,0,0,1,1.6,0l.22.1,0,.26a58,58,0,0,1,.51,5.89v.34l-.29.08c-.58.16-1.31.5-1.33,1a1.31,1.31,0,0,0,.41.82,9.19,9.19,0,0,0,.8.71,4.09,4.09,0,0,1-1-.51,1.61,1.61,0,0,1-.73-1,1.35,1.35,0,0,1,.54-1.19,3.91,3.91,0,0,1,1.05-.6l-.28.42a58.46,58.46,0,0,1-.6-5.89l.25.35a1.1,1.1,0,0,0-.9-.13,1.67,1.67,0,0,0-.77.73A9.1,9.1,0,0,0,89.73,34.88Z"/><path class="cls-9" d="M114.42,34.38c.18,1.07-.15,2-.76,2.13s-1.24-.68-1.43-1.74.15-2,.76-2.13S114.23,33.32,114.42,34.38Z"/><path class="cls-9" d="M133,34.87c-.13,1.07-.72,1.89-1.33,1.82s-1-1-.87-2.08.72-1.89,1.32-1.82S133.16,33.79,133,34.87Z"/><path class="cls-10" d="M134.84,37.71a1.56,1.56,0,1,1-1.14,1.89A1.56,1.56,0,0,1,134.84,37.71Z"/><path class="cls-10" d="M110.63,38.7a1.56,1.56,0,1,1-1.14,1.89A1.56,1.56,0,0,1,110.63,38.7Z"/><path class="cls-11" d="M99.28,355.7,101.2,367s-40.33,19.2,8.78,4.66l1.65-19.48Z"/><path class="cls-12" d="M110.71,363l.92-10.87L99.28,355.7l1.26,7.36A86.26,86.26,0,0,1,110.71,363Z"/><path class="cls-11" d="M110.25,367.22l-.27,4.39s-22.22,8.78-24.69,5.76,13.25-9.08,13.25-9.08S93.52,373.26,110.25,367.22Z"/><path class="cls-11" d="M141.81,355.7,139.89,367s40.33,19.2-8.78,4.66l-1.65-19.48Z"/><path class="cls-12" d="M130.38,363l-.92-10.87,12.35,3.57-1.26,7.36A86.26,86.26,0,0,0,130.38,363Z"/><path class="cls-11" d="M142.55,368.29s5,5-11.72-1.07l.28,4.39s22.22,8.78,24.69,5.76"/><path class="cls-11" d="M159.36,153h-77s-10.83,12-8.63,43.23S90,275.31,90,275.31s-8.78,20.85-2.19,48.29S99.36,362,99.36,362l12.27-.55,10.17-149,.8.32,6.59,148.15,13.16,1.1s4.94-11,11.53-38.41-2.2-48.29-2.2-48.29,14.3-45.82,16.49-77.09S159.36,153,159.36,153Z"/><path class="cls-13" d="M121.47,209.52c-17.86-6.63-34.93-17.46-47.48-32a102.44,102.44,0,0,0-.27,18.66C75.91,227.45,90,275.31,90,275.31s-8.78,20.85-2.19,48.29S99.36,362,99.36,362l12.27-.55,10.12-148.2A24.68,24.68,0,0,1,121.47,209.52Z"/><path class="cls-12" d="M96.11,158.24c12.13,1.17,24.23,1.7,36.41,1.71,5.71,0,11.43,0,17.14-.28,4.1-.2,8.62-.3,12.65-1.56a29,29,0,0,0-2.95-5.16h-77a20.91,20.91,0,0,0-2.29,3.46C85.4,157.09,90.75,157.72,96.11,158.24Z"/><path class="cls-14" d="M164.5,90.8c-14-25.79-27.57-24.36-27.57-24.36v.09c-14.07,6.16-28.33,11.78-47.45,1.18,0,0-13.64.61-23.62,28.21s-11.57,46.52-2.11,50.2c6.66,2.58,17.72-14.57,23.71-25l-7.71,31.93c42.72,7.56,84.69,2.65,84.69,2.65-2.89-8.85-5.95-18.38-8.45-26.19,6.65,7,14,13,18.09,10.6C182.89,135.07,178.5,116.6,164.5,90.8Z"/><path class="cls-15" d="M168.26,98.05c-4.36,7.34-10.17,13.65-18.58,16.5-16.92,5.72-32.71-3.29-49.23-6-3.08,7.28-7.52,16-14.47,18.71l-6.22,25.77c42.72,7.56,84.69,2.65,84.69,2.65-2.89-8.85-5.95-18.38-8.45-26.19,6.65,7,14,13,18.09,10.6C182,135.56,179.2,120,168.26,98.05Z"/><path class="cls-16" d="M118,97.64s-2.19-8.58-6.7-4.73c-7.07,6,8.93,14.28,8.93,14.28A57.73,57.73,0,0,0,125,101a22.67,22.67,0,0,0,1.84-3.52c.47-1.15,1.08-2.53.75-3.78-.4-1.52-2.07-2.14-3.51-2.17a4.28,4.28,0,0,0-2.63.93,10.47,10.47,0,0,0-3.05,4.23C118.27,96.83,117.9,97.43,118,97.64Z"/><rect class="cls-17" x="121.33" y="71.75" width="29.48" height="14.14" rx="1.92" transform="translate(28.05 193.1) rotate(-76.7)"/><path class="cls-4" d="M160,139.25s8.44,9,15.47.71S148.5,81.05,148.5,81.05A14.43,14.43,0,0,0,143,77c-3.23-1.2-18.19-4.51.35,2.63,0,0-31.22-6.23,1,2.43,0,0-26.78-1.94.77,3.08,0,0-22.49.37-2,2.33C143.06,87.42,146.73,109.36,160,139.25Z"/><path class="cls-4" d="M115.33,77a14.52,14.52,0,0,0-5.54,4.1S56.21,135.2,63.24,143.49s23.13-3.68,23.13-3.68c21-22.08,29.49-50.81,29.49-50.81,11.4-3.1,6.27-6,6.27-6,4.27-3-1.57-2.88-2.93-2.63.94-.19,3.43-.16,3.57-2.2,0-.44-1-1.16-1.45-1.28C140.61,67,118.12,75.92,115.33,77Z"/><path class="cls-18" d="M121.67,56.86a5.29,5.29,0,0,0,2-.14,5.67,5.67,0,0,0,3-1.88A3.72,3.72,0,0,0,121.67,56.86Z"/><path class="cls-9" d="M127.48,49.73c-1.43-.89-1.93,1.08-4,1.39S119,50.2,118.37,51s-.1,5.44,3.3,5.9a3.72,3.72,0,0,1,5-2C128.3,52.92,128.36,50.29,127.48,49.73Z"/><path class="cls-16" d="M153.37,370.31c-4.21-2.22-7.72-5.26-11.33-8.32-.53-.46-6.63-.81-11.83-1a101.35,101.35,0,0,0,.34,11.3,101.68,101.68,0,0,0,21.79,6.29,38.46,38.46,0,0,1,2.14-7.76C154.09,370.66,153.72,370.49,153.37,370.31Z"/><path class="cls-19" d="M161.93,375.64c-1.12-2.68-4.77-3.67-7.45-4.81a38.46,38.46,0,0,0-2.14,7.76,67.14,67.14,0,0,0,9.37.89A4.85,4.85,0,0,0,161.93,375.64Z"/><path class="cls-20" d="M130.55,372.3a7.23,7.23,0,0,0,1.33,4c2.64,2.73,23.11,5.9,29,4.85a10.93,10.93,0,0,0,.86-1.67C148,379.2,134.39,373.91,130.55,372.3Z"/><path class="cls-21" d="M151,368.73a3.38,3.38,0,0,0-.88.61,5.7,5.7,0,0,0-1.46,2.19,8.26,8.26,0,0,0-.47,2.15.38.38,0,0,0,.37.37.38.38,0,0,0,.38-.37,6.29,6.29,0,0,1,1-3,4,4,0,0,1,.66-.77l.15-.14.07-.06,0,0s0,0,0,0a1.51,1.51,0,0,1,.26-.18l.28-.16a.37.37,0,0,0-.38-.64Z"/><path class="cls-21" d="M145.4,364.36c-1.68-.28-3.3,1-4.25,2.2a10.89,10.89,0,0,0-1.52,2.88c-.17.46.55.65.72.2a8.15,8.15,0,0,1,2.52-3.76,4.09,4.09,0,0,1,1.16-.62,2.93,2.93,0,0,1,.51-.13l.11,0s-.07,0,0,0h.59c.07,0-.11,0-.06,0,.47.08.68-.65.2-.73Z"/><path class="cls-16" d="M87.89,369.91c-.35.16-.73.31-1.13.46a38.23,38.23,0,0,1,1.71,7.86,101,101,0,0,0,22.1-5.09,64.84,64.84,0,0,0,.32-11.7,38.14,38.14,0,0,0-10.57.57Z"/><path class="cls-19" d="M79.05,374.76c1.27-2.61,5-3.4,7.71-4.39a38.23,38.23,0,0,1,1.71,7.86,66.59,66.59,0,0,1-9.41.38A5,5,0,0,1,79.05,374.76Z"/><path class="cls-20" d="M110.57,373.14a7.28,7.28,0,0,1-1.55,3.93c-2.78,2.58-23.39,4.62-29.18,3.25a11.58,11.58,0,0,1-.78-1.71C92.8,379.08,106.65,374.54,110.57,373.14Z"/><path class="cls-21" d="M90,369.09a1.07,1.07,0,0,1,.21.13l.11.07h0l.07.06.29.26a4.8,4.8,0,0,1,1.16,1.93,6.7,6.7,0,0,1,.34,2c0,.48.77.48.75,0a6.21,6.21,0,0,0-2.25-4.9,2.16,2.16,0,0,0-.3-.18c-.43-.22-.81.43-.38.64Z"/><path class="cls-21" d="M96.26,365.15h.51l.12,0a4.27,4.27,0,0,1,.48.13l.12.05.06,0h0l.3.15a3.79,3.79,0,0,1,.6.38,6,6,0,0,1,1.2,1.3,10.67,10.67,0,0,1,1.27,2.74.37.37,0,0,0,.72-.2c-.73-2.33-2.24-5-4.94-5.36a1.77,1.77,0,0,0-.46,0,.39.39,0,0,0-.38.37.39.39,0,0,0,.38.38Z"/></g></g></svg>