<svg xmlns="http://www.w3.org/2000/svg" viewBox="0 0 187.82 219.99"><defs><style>.cls-1{isolation:isolate;}.cls-2{fill:#c70063;opacity:0.3;}.cls-14,.cls-3{fill:#c15252;}.cls-3{stroke:#c9c9c9;stroke-miterlimit:10;}.cls-4{fill:#4b9fdd;}.cls-5{fill:#298fce;}.cls-6{fill:#f2f2f2;}.cls-7{fill:#86abad;opacity:0.33;}.cls-22,.cls-7,.cls-8{mix-blend-mode:multiply;}.cls-8{fill:#ea9781;opacity:0.15;}.cls-22,.cls-9{fill:#373c44;}.cls-10{fill:#685a56;}.cls-11{fill:#8e8e8e;}.cls-12{fill:#c6c6c6;}.cls-13{fill:#e8e8e8;}.cls-15{fill:#fff;}.cls-16{fill:#dddcd7;}.cls-17{fill:#ffac9d;}.cls-18,.cls-20{fill:#ce8282;}.cls-19{fill:#e5998f;}.cls-20{opacity:0.56;}.cls-21{fill:#d6a292;}.cls-22{opacity:0.08;}.cls-23{fill:#c4c3c0;}.cls-24{fill:#afaeaa;}.cls-25{fill:#c9c9c9;}</style></defs><g class="cls-1"><g id="Layer_2" data-name="Layer 2"><g id="OBJECTS"><circle class="cls-2" cx="110.86" cy="106.34" r="76.96"/><path class="cls-3" d="M9.5,62.61c-.52,4.74,1.17,8,2.43,11.74C13.82,80,14.37,86,14.61,91.92c.4,10.26-.24,20.78,2.77,30.74A34.88,34.88,0,0,0,32,142.2c8.73,5.54,18.76,5.73,28.77,5.16,1.72-.09,1.73-2.78,0-2.68-9.52.54-19.09.49-27.42-4.8-8-5.06-12.63-13.16-14.47-22.28-1.81-9-1.21-18.19-1.66-27.27a71.41,71.41,0,0,0-2-12.82c-.94-4-6-11.22-4.33-15.13.67-1.59-.72-1.34-1.38.23Z"/><path class="cls-4" d="M132.32,111s22.87-83.54-1.2-107.68C106.7-3.17,71.54,3.22,56.21,17.62c-6.88,20.68,4.52,67.24,4.52,67.24Z"/><path class="cls-5" d="M63.22,108.54S48.05,190.27,90.09,212.37c35,3,72.12-.9,72.12-.9s7.34-6.12,8.19-11.37l-43.64-75.18L84.47,99.74l-21.25,8.8"/><path class="cls-5" d="M126.65,102.28s26,28.55,33.85,28.78,16.49-5.2,14.75-15.38c-11.8-5.69-21-9.87-21-9.87l-22.51-10.1Z"/><path class="cls-4" d="M125,93.65s26.07,32.73,35.32,32.83,17-6.87,14.55-11.76-30.74-27.82-40.5-28.48S125,93.65,125,93.65Z"/><path class="cls-5" d="M58,16c-.2.11,12.47,3.53,14.88,19.94a176.13,176.13,0,0,1,2,28.57L85,62.89S73.78,16.12,71.14,15.52,64.25,12.5,58,16Z"/><path class="cls-6" d="M120.19.07c12.89.37,17.16,33.51,16.28,50.52-18.28,9.83-61.87,12.3-61.87,12.3s.73-20-3.24-33.34S58,16,58,16,75.68-1.21,120.19.07Z"/><path class="cls-5" d="M60.73,84.86S48.37,34.53,56.21,17.62c8.34,2.45,13.11,50.32,10.17,67.26C61.8,86.38,60.73,84.86,60.73,84.86Z"/><path class="cls-7" d="M132.42,93.5s31.7,6.18,35.79,31.33c7.15-1.91,9.87-8.51,4.91-12.87s-35.59-31.45-40.7-23.3S132.42,93.5,132.42,93.5Z"/><path class="cls-4" d="M69.33,102.49S62,181.72,92.1,204.68c39.41,1.77,67.41.79,78.26-4.4,2.53-14.77,7.74-40.29-16.9-68.27S112.3,94.67,112.3,94.67Z"/><path class="cls-8" d="M91.58,2s24.42,27.29,17,57.18l27.3-2.88s2-22.77-2.72-39.57C131,9,127.81,2.58,121.57.17,98.76.17,91.58,2,91.58,2Z"/><path class="cls-7" d="M95.34,133.3s44.5,35.07,31.15,71.68c-.5,1.36,23.49,2.6,43.87-4.7,2.06-10.17,3.26-25-.06-38.26-2.86-11.51-9.53-21.62-16.84-30-13.22-15.15-34.25-35.36-44.56-38.34S95.34,133.3,95.34,133.3Z"/><polygon class="cls-9" points="74.58 115.8 83.78 135.67 107.33 140.37 114.69 123.94 112.63 109.82 74.58 115.8"/><path class="cls-10" d="M96.53,9.88s18.25-3.71,25.08,6.4.29,16.55,10.75,24.93,11.6,16.89,9.88,21.6-7.12,10.8-18.84,11.83-41.71-9.16-41.79-9.19c-1.17-.4-2.15-2.69-2.47-3.71-.9-2.87.23-6.07,1.44-8.69,3.3-7.12,7.26-14.12,6-22.29C85.26,21.45,96.53,9.88,96.53,9.88Z"/><path class="cls-11" d="M67,79.08s-.1,4.57,8.24,6.24S73.14,74.82,67,79.08Z"/><path class="cls-5" d="M69.34,143.75a38.71,38.71,0,0,1,9-7A61.6,61.6,0,0,1,88.74,132c1.8-.67,3.65-1.15,5.49-1.69a27.52,27.52,0,0,1,2.79-.66l2.82-.59a54.16,54.16,0,0,1,5.67-.83l2.85-.34c1-.11,1.91-.1,2.86-.16,1.91-.06,3.82-.14,5.73-.16l5.72.25,2.85.16,2.84.37c1.89.23,3.77.49,5.65.76,3.74.65,7.44,1.57,11.13,2.4,3.62,1.12,7.24,2.23,10.81,3.47-3.75-.6-7.44-1.32-11.12-2l-5.58-.77c-1.86-.22-3.69-.6-5.56-.75s-3.72-.29-5.58-.47l-2.79-.25-2.79-.05L117,130.5c-1.86.05-3.71.15-5.57.22a97.41,97.41,0,0,0-21.92,3.5A73.5,73.5,0,0,0,79,138.09,49.3,49.3,0,0,0,69.34,143.75Z"/><path class="cls-5" d="M73.81,172.05a119.14,119.14,0,0,1,24-6.35,179.88,179.88,0,0,1,24.74-2.4,185.41,185.41,0,0,1,24.83,1c4.13.33,8.21,1.09,12.29,1.72,2,.31,4.06.81,6.08,1.24s4,.91,6,1.4c-2.06-.17-4.12-.36-6.16-.58s-4.08-.51-6.14-.6L153.3,167c-2-.2-4.09-.29-6.14-.38l-6.14-.3-6.14-.11c-1,0-2-.07-3.07-.06l-3.07,0c-2.05,0-4.09,0-6.14.1l-6.13.21c-2,.08-4.08.28-6.13.38s-4.08.31-6.12.49-4.08.39-6.11.63A219.09,219.09,0,0,0,73.81,172.05Z"/><path class="cls-9" d="M69.1,121.28s-6.27,22.41,23.55,42.16c12.15,21.08,29.43,39.12,34.37,39.31s-23.15-64.38-29.23-70.64S83.72,121.28,69.1,121.28Z"/><path class="cls-9" d="M111.52,111.86s23.79,14.43,33.09,42.92-5.51,41.4-5.51,41.4-12.89-22.22-8.53-35.9c-9.89-4.74-37-25.25-40.27-42.15S111.52,111.86,111.52,111.86Z"/><path class="cls-5" d="M36.23,121.15s-2.37,5.56-.11,9.54,8.8,7.91,16.65,5.67S76.86,102.7,79,90.93s-27.19,22.14-27.19,22.14Z"/><path class="cls-4" d="M73,86.45S66.75,82,61,83.72c-6.79,4.67-28.58,35.74-24.78,42.83s13.51,8.37,18.49,4.91,24.37-41,24.37-41Z"/><path class="cls-12" d="M132.71,217.21c-2.49-.75-5.42-2.32-6.9-4.51-2.69-4-4-9-4.82-13.87a7.71,7.71,0,0,1-.85-.3s.74,11.92,6.72,17.77,11.55,3.37,13.87,1.79a2.51,2.51,0,0,0,.12-1.92C138.25,217.32,135.71,218.13,132.71,217.21Z"/><path class="cls-13" d="M128.44,215.21a16.33,16.33,0,0,0,4.27,2c3,.92,5.54.11,8.14-1a19.52,19.52,0,0,0-3.3-5.82C132.14,209.77,129.58,212.88,128.44,215.21Z"/><path class="cls-14" d="M137.55,210.35c-3.53-4.79-8.84-10.57-11.25-14.81-.15,4.28-3.66,3.77-5.31,3.29.81,4.83,2.13,9.89,4.82,13.87a9.57,9.57,0,0,0,2.63,2.51C129.58,212.88,132.14,209.77,137.55,210.35Z"/><path class="cls-14" d="M149.36,202.11a45.25,45.25,0,0,1-5.69-8.17c-.26-.43-1.18-1.48-1.18-2,0,0-4.3,3-6.11-1.07a39.44,39.44,0,0,0-2.76,7.34,71.42,71.42,0,0,0,13.15,9.19,27.1,27.1,0,0,1,3.21-4.7C149.75,202.5,149.54,202.31,149.36,202.11Z"/><path class="cls-13" d="M153.87,207.63c-.14-2-2.36-3.55-3.89-4.92a27.1,27.1,0,0,0-3.21,4.7,47.1,47.1,0,0,0,6.08,2.74A3.5,3.5,0,0,0,153.87,207.63Z"/><path class="cls-12" d="M133.62,198.22a5.11,5.11,0,0,0,0,3c1.14,2.43,14.13,9.23,18.29,9.86a7.62,7.62,0,0,0,1-.92C143.7,206.82,135.82,200.18,133.62,198.22Z"/><path class="cls-7" d="M39.61,114.91s-6.17,7.87-3,12.3c3.35-4.11,10.13-11.31,19.55-13.73,5.5-2.3,14.11-4.31,17.25-12.12a37.14,37.14,0,0,0,4.46-12.6L64.55,94.67Z"/><path class="cls-15" d="M127.61,211.26a5.32,5.32,0,0,1,4-2.74,7.16,7.16,0,0,1,2.94.3.38.38,0,0,0,.2-.73,7.17,7.17,0,0,0-5,.2,6.19,6.19,0,0,0-2.43,2.05,3.06,3.06,0,0,0-.34.54c-.21.44.43.82.65.38Z"/><path class="cls-15" d="M125.17,207.6a5.06,5.06,0,0,1,3.38-2.73,4.76,4.76,0,0,1,2.31.14.37.37,0,0,0,.2-.72,5.28,5.28,0,0,0-4.12.39,6.24,6.24,0,0,0-2.1,2,3.1,3.1,0,0,0-.31.52c-.21.44.44.82.64.38Z"/><path class="cls-15" d="M148.18,200.39a2.5,2.5,0,0,0-.84.23,4,4,0,0,0-1.46,1.11,5.81,5.81,0,0,0-.84,1.34.38.38,0,0,0,.14.51.36.36,0,0,0,.51-.13,5.2,5.2,0,0,1,.32-.62l.15-.24.1-.14s.08-.11.05-.08a4.48,4.48,0,0,1,.36-.4l.17-.15.09-.08s.11-.09,0,0a3.37,3.37,0,0,1,.66-.39l.06,0h0l.14-.05a.79.79,0,0,1,.22-.06l.16,0c.06,0-.12,0,0,0a.38.38,0,0,0,.37-.38.37.37,0,0,0-.37-.37Z"/><path class="cls-15" d="M145.41,196.2a3.52,3.52,0,0,0-3.42.49,7.92,7.92,0,0,0-1.69,1.58c-.3.37.22.9.53.53a5.32,5.32,0,0,1,3-2.08,2.53,2.53,0,0,1,.55,0h.12c.08,0-.07,0,0,0l.19,0,.27.09c.07,0-.1-.05,0,0h0c.43.23.81-.42.38-.64Z"/><path class="cls-16" d="M133.13,69.29c-9.55-17.65-27.83-15.5-27.84-15.5a7.54,7.54,0,0,0-1.69.72l-1.58.64c-.91.36-1.82.71-2.74,1.05-1.58.58-3.17,1.11-4.77,1.64-2.49.83-4.93,1.73-7.41,2.54a65.6,65.6,0,0,0-7.29,2.8A32.16,32.16,0,0,0,74.88,66c-1.45,1-3.26,2.31-4,4a8.5,8.5,0,0,0-.6,2.59,26.46,26.46,0,0,0,.18,5.26C74,80.37,74.23,88,77.71,89.18a278.89,278.89,0,0,0-11.07,38c17.79-11.24,51.64-10.35,51.64-10.35L113.1,96.41l3.61-2.06,19.87,3.08S137.06,82.08,133.13,69.29Z"/><path class="cls-17" d="M119.58,93.61s-11.34,10.94-14.36,12.32c-5.41-.63-12.86,3.24-12.7,4.28.5,1.13,4.9,0,4.9,0S86,115.86,86,117s8,2.91,13.29,2.26c-1.11,1.38-4.36,3.64-3.36,4.53s11.7-2.14,14.34-6.42c7.16-2.89,20.87-15.21,20.87-19.74S123.26,92.61,119.58,93.61Z"/><path class="cls-17" d="M89.47,118.36s5.85-.61,8.61-3"/><path class="cls-18" d="M86.89,31.53c0-.11-4.26-4.42-7.22-1.37s1.93,7.61,8,6.14A23.15,23.15,0,0,0,86.89,31.53Z"/><path class="cls-9" d="M85.93,34A3.63,3.63,0,0,0,85,32.71l-.06-.05a11,11,0,0,0-4.32-2.09.2.2,0,0,0-.1.38,13,13,0,0,1,3.55,1.51,5.19,5.19,0,0,0-3.1.72.2.2,0,0,0,.21.34A4.45,4.45,0,0,1,84.74,33a3.42,3.42,0,0,1,.81,1.13C85.64,34.38,86,34.27,85.93,34Z"/><path class="cls-10" d="M96,11s-1.83-6.27.53-6.86,0,5.14,0,5.14,1.3-3.49,2.46-2.7S97.1,11.08,96,11Z"/><path class="cls-19" d="M114.69,57.89,112,45a14.16,14.16,0,0,0,3.3-1.63c3.1-2.29,5.32-7.94,3.78-17.73-19.14-.48-21.85-12-22.21-15.85l-.34.06a11.58,11.58,0,0,1-.09,2.57c.6,5.32,3.89,14.27,19.12,15.57,0,8.56-4,17-12.26,18.38,1.22,5.61,2.19,12.42,9.82,12.82A7.76,7.76,0,0,0,114.69,57.89Z"/><path class="cls-17" d="M103.3,46.4c8.27-1.34,12.26-9.82,12.26-18.38C100.33,26.72,97,17.77,96.44,12.45,95.39,19.78,87.82,26,85,28.12c.54,7.81,2.15,15.6,6.71,17.45A21.84,21.84,0,0,0,98.82,47l-.66,10s1.27,3.28,7.47,3.83a11.62,11.62,0,0,0,7.49-1.68C105.49,58.82,104.52,52,103.3,46.4Z"/><path class="cls-9" d="M95.38,27.5a26.8,26.8,0,0,1,.11,3.79c0,1.26-.16,2.51-.3,3.76l-.59-.49a25.57,25.57,0,0,1,4.3-.72,27.59,27.59,0,0,1-4.05,1.62l-.63.21,0-.7c.07-1.25.17-2.51.35-3.75A25.34,25.34,0,0,1,95.38,27.5Z"/><path class="cls-9" d="M105.63,26.36c0,.92-.41,1.66-.92,1.66s-.91-.74-.91-1.66.41-1.67.91-1.67S105.63,25.44,105.63,26.36Z"/><path class="cls-9" d="M90.33,30.1c0,.85-.28,1.56-.74,1.59s-.89-.63-1-1.48.28-1.56.75-1.59S90.27,29.25,90.33,30.1Z"/><path class="cls-9" d="M106.7,36a4.74,4.74,0,0,0,.59-1.69c.15-1.07-.14-2.37-1.46-2.37-.9,0-1,1.14-1.37,1.76-.62,1.17-2.09,1-3.2,1.34-.84.22-1.91.73-2,1.71s1.23,1.56,2.07,1.75a4.61,4.61,0,0,0,2.58-.15C103.81,37.59,103.76,35.75,106.7,36Z"/><path class="cls-18" d="M103.93,38.3a5,5,0,0,0,1.18-.6A5.35,5.35,0,0,0,106.7,36C103.76,35.75,103.81,37.59,103.93,38.3Z"/><path class="cls-10" d="M96.25,9.88A28.76,28.76,0,0,0,89,12.49a8.19,8.19,0,0,0-4.49,7.24c0,2.31.3,5.42.52,8.54C88.14,25.9,96.93,18.29,96.25,9.88Z"/><path class="cls-10" d="M98.24,9.62c-.46.05-.92.12-1.37.2.36,3.88,3.07,15.37,22.21,15.85l-.06-.38C117.4,15.31,105.09,8.92,98.24,9.62Z"/><path class="cls-20" d="M106.05,27.82a1.56,1.56,0,1,1-1.14,1.89A1.56,1.56,0,0,1,106.05,27.82Z"/><path class="cls-20" d="M90,32.76a1.56,1.56,0,1,1-1.13,1.89A1.56,1.56,0,0,1,90,32.76Z"/><path class="cls-18" d="M117.39,26.36s4-5.34,7.92-2.57-.79,9.12-6.8,7.47A26,26,0,0,1,117.39,26.36Z"/><path class="cls-9" d="M124.9,26.57a7.13,7.13,0,0,0-4.25.3,5.81,5.81,0,0,1,3.59-2c.25,0,.15-.42-.1-.39a6.47,6.47,0,0,0-5.29,5.11c0,.25.33.36.38.11a5.89,5.89,0,0,1,1.18-2.35,8,8,0,0,1,4.38-.41A.2.2,0,0,0,124.9,26.57Z"/><path class="cls-17" d="M38.52,109.56c-.3,0-6.17,1.48-6.17,1.48l-3.69-5.94s2.42-1,3.63,1,1,3.12,1,3.12,3.77-2.08,6-.62S38.52,109.56,38.52,109.56Z"/><path class="cls-21" d="M39.16,109.82s-2.45,4.82-.64,6a5.69,5.69,0,0,0,3.85.74l5.78-3.81,1.48-1-4.82-6.28-3,1.48Z"/><path class="cls-17" d="M82.79,88.42S86,77.79,82,74.6s-9.1.28-9.1.28S64,87.17,62.68,90.13c-.28.63-3.63,1.73-4.35,2.16A41.41,41.41,0,0,0,54.25,95c-.92.69-11.29,9.75-11.59,9.39L49,112.33s23.5-8.63,26.07-11.57S82.79,88.42,82.79,88.42Z"/><path class="cls-14" d="M67,83.22c12.79-4.39,13.3,9.52,13.3,9.52l-1,1.61C77.15,79,65.91,84.88,65.91,84.88Z"/><path class="cls-14" d="M46.2,107.51A5.23,5.23,0,1,1,41,102.28,5.23,5.23,0,0,1,46.2,107.51Z"/><path class="cls-15" d="M38.63,103.32c-.09.07-.19.17-.16.28a.29.29,0,0,0,.14.15,1,1,0,0,0,.63.07,3.62,3.62,0,0,0,.62-.18,4.14,4.14,0,0,1,1-.19,1.26,1.26,0,0,0,.28,0,.28.28,0,0,0,.19-.19c.08-.4-.84-.52-1.11-.51A2.84,2.84,0,0,0,38.63,103.32Z"/><path class="cls-22" d="M35.89,109s8.76,1.18,9-5c1.32,1.28,3,6.59-2.51,8.5C38.52,114,35.89,109,35.89,109Z"/><path class="cls-22" d="M97.31,92.43c9.12,3.31,15.28.36,15.28.36l-6.16,9.29h0a23.65,23.65,0,0,0-22.43,0c5.25,1,18.68,2.88,22,3.32l0,.1.1-.08.62.08,0-.55,7.15-5.77-.7-2.77,3.61-2.06L118.84,72S108.17,91.87,97.31,92.43Z"/><path class="cls-23" d="M82.79,88.42S78,73.67,68.55,75.56a5.85,5.85,0,0,1,2.62-5S84.74,73.93,82.79,88.42Z"/><path class="cls-24" d="M67,79.08s7.18-2.89,15.61,8.84c0,0-2.07-15.82-14.07-13.2C67.18,76.07,67,79.08,67,79.08Z"/><path class="cls-16" d="M71.17,70.53s13.18,3.06,11.62,17.89c5.65-4.49-.17-17.89-.17-17.89l-6.85-1.16Z"/><path class="cls-24" d="M76.86,73.35a8.28,8.28,0,0,1,.81-2.57,9.93,9.93,0,0,1,1.5-2.27,7.86,7.86,0,0,1,2.17-1.71A5.28,5.28,0,0,1,84,66.24a11.1,11.1,0,0,0-2.26,1.23,13.36,13.36,0,0,0-1.83,1.7,23.85,23.85,0,0,0-1.57,2C77.84,71.88,77.36,72.6,76.86,73.35Z"/><path class="cls-24" d="M81.42,78.89c1.1-.68,2.14-1.22,3.17-1.83.52-.29,1-.6,1.55-.91s1-.64,1.6-1a6.44,6.44,0,0,1-2.65,2.72,7.58,7.58,0,0,1-1.76.75A5.36,5.36,0,0,1,81.42,78.89Z"/><path class="cls-22" d="M82.79,88.42s-.17,12.8-5.93,13.86c-2.82,4.08-2.57,21.13-2.57,21.13s-6.22,2.61-7.65,3.8c.37-5.93,6.48-25.27,6.48-25.27s1.44-.1,3.38-3.08S82.79,88.42,82.79,88.42Z"/><path class="cls-14" d="M102.61,80.42s-.12-6.25-3.84-4.33c-5.84,3,3.84,11.25,3.84,11.25a40,40,0,0,0,4.28-3.52,16.08,16.08,0,0,0,1.83-2.13,4.44,4.44,0,0,0,1.12-2.47c0-1.12-1.08-1.81-2.06-2.06a3.07,3.07,0,0,0-2,.21A7.39,7.39,0,0,0,103,79.8C103,79.91,102.61,80.26,102.61,80.42Z"/><path class="cls-17" d="M37.22,115.8l-3.62-2.3,2.82-8s2.14,1.82,1.68,3.09-1.54,4.17-1.54,4.17S40.48,113,37.22,115.8Z"/><path class="cls-17" d="M49,112.33s-7.24,8-8.63,8-4.61-5.36-4.61-5.36l2.35-6.38s2.67,2.56,1.62,4.17a3,3,0,0,0,.34,3.3S43.31,108.43,49,112.33Z"/><path class="cls-25" d="M31.74,29.33c-11.8-8.3-29-.88-29-.88-4,8.15-3.62,21,.81,27.47A9.82,9.82,0,0,0,8.9,59.59c.08,1.88.42,7.58,1.59,7.75s1.12-5,1.08-7.13a30.31,30.31,0,0,0,8.5-.06c.12,2.25.5,7,1.57,7.19s1.11-6.06,1.06-7.64A43.5,43.5,0,0,0,28.92,58C34,54.63,35.23,48.5,31.74,29.33Z"/><path class="cls-14" d="M9.23,58.53A13.06,13.06,0,0,1,1.58,48.2c7.86,1.61,20.27,1.4,23.71-1.4A8.67,8.67,0,0,1,32.58,45s1.56,11.23-9.91,13.4c-.31.91-.68,2.45-1.38,1.75a3.06,3.06,0,0,1-.84-1.44s-7.82.45-9.64.17c-.35,1.43-.6,2.11-1,1.76A6.94,6.94,0,0,1,9.23,58.53Z"/><path class="cls-3" d="M21.05,63.75c-.58,5.89-.84,11.81-1,17.72-.12,4.65-.31,10.9,4.4,13.51,5.73,3.18,12.47-1.62,18-2.91a37,37,0,0,1,11-.84c3.61.26,7.17,1.68,10.79,1.19,1-.13.56-1.62-.41-1.49-3.25.45-6.67-.93-9.93-1.21a38.9,38.9,0,0,0-8.76.29,39.83,39.83,0,0,0-8.7,2.34c-3.1,1.2-6.57,2.8-10,1.82-6-1.75-5-10-4.86-14.81.18-5.2.42-10.42.93-15.61.1-1-1.44-1-1.54,0Z"/><path class="cls-15" d="M64.81,86.54s5-1,7.88,2a59.85,59.85,0,0,1-5.17,6.33S65.28,90.6,61.33,91C61.62,88.8,64.81,86.54,64.81,86.54Z"/><path class="cls-6" d="M4,30.94a13.07,13.07,0,0,0-1.57,5.75,33,33,0,0,0-.26,4.09,7.29,7.29,0,0,0,.46,2.78,6,6,0,0,0,5,3.34,14.41,14.41,0,0,0,6.19-1.09,34.87,34.87,0,0,1,6-1.93c2-.34,4.12-.2,6.16-.52s4.15-1.23,5.13-3S31.67,36,31,33.93a7.6,7.6,0,0,0-1.28-2.54A6.55,6.55,0,0,0,26,29.55,32.08,32.08,0,0,0,19.92,29c-3.22-.07-6.61.17-9.81-.22C7.61,28.5,5.52,28.54,4,30.94Z"/><path class="cls-15" d="M6.47,37.12s10.5-3.44,19.7-.54v4.33S13.55,39.61,6,42A17.69,17.69,0,0,1,6.47,37.12Z"/><path class="cls-19" d="M116.71,96.33a13,13,0,0,0,8.33,5.1l-14.79,15.94s14.15-6.55,20.87-19c-1.47,0-9.09-1.49-12.81-3.54Z"/><path class="cls-16" d="M116.71,94.35a23,23,0,0,0,19.87,3.08A20.22,20.22,0,0,0,116.71,94.35Z"/></g></g></g></svg>